PathFileType	4	(X/Y/Z)	./resultDataOpenSim/trcMotMarkerGrf/sub06/qtm-14-05.trc
DataRate	CameraRate	NumFrames	NumMarkers	Units	OrigDataRate	OrigDataStartFrame	OrigNumFrames
250.000000	250.000000	10	24	m	250.000000	204	543
Frame#	Time	L.Toe.Tip			R.Toe.Tip			L.Ankle.Lat			R.Ankle.Lat			L.Ankle.Med			R.Ankle.Med			L.Heel			R.Heel			L.Knee.Lat			R.Knee.Lat			L.Knee.Med			R.Knee.Med			L.Thigh.Upper			R.Thigh.Upper			L.ASIS			R.ASIS			V.Sacral			L.Acromium			R.Acromium			C7			L.Elbow			R.Elbow			L.Wrist.Lat			R.Wrist.Lat
		X1	Y1	Z1	X2	Y2	Z2	X3	Y3	Z3	X4	Y4	Z4	X5	Y5	Z5	X6	Y6	Z6	X7	Y7	Z7	X8	Y8	Z8	X9	Y9	Z9	X10	Y10	Z10	X11	Y11	Z11	X12	Y12	Z12	X13	Y13	Z13	X14	Y14	Z14	X15	Y15	Z15	X16	Y16	Z16	X17	Y17	Z17	X18	Y18	Z18	X19	Y19	Z19	X20	Y20	Z20	X21	Y21	Z21	X22	Y22	Z22	X23	Y23	Z23	X24	Y24	Z24

204	0.812	0.036552317	-0.039710896	-0.0056601469	-0.3741071	0.12461163	0.13122748	-0.084733059	-0.0084431633	-0.046120856	-0.39163882	0.26150619	0.15496848	-0.096060451	0.0097317944	0.038928895	-0.3524826	0.24966458	0.075038407	-0.16412435	-0.035026638	-0.010446371	-0.42168458	0.3034585	0.091513179	-0.018285952	0.36004699	-0.071556138	-0.043927054	0.37469927	0.21076464	-0.056690246	0.36564215	0.043862858	-0.053569027	0.35423995	0.076272651	-0.097093962	0.74359619	-0.16225111	-0.17141072	0.72350006	0.17848251	-0.041338039	0.79405827	-0.1069582	-0.073385305	0.78818325	0.13715595	-0.24219387	0.85909539	-0.0015337555	-0.10329451	1.2615275	-0.18303309	-0.13203618	1.2663662	0.17715556	-0.20344916	1.2978141	-0.012241683	-0.19582121	0.96782721	-0.23723892	-0.1969543	0.95892385	0.27620633	-0.12509006	0.74040157	-0.28551599	0.008363664	0.81518984	0.27014254
205	0.816	0.036509265	-0.039710253	-0.0055506058	-0.35568093	0.12540725	0.13203695	-0.084732836	-0.0083407285	-0.04613677	-0.37551316	0.26186004	0.15547928	-0.096091303	0.0099572284	0.038819449	-0.33618106	0.25048726	0.075668431	-0.16418009	-0.034960881	-0.010412148	-0.40655907	0.3032705	0.092119248	-0.017404219	0.3601232	-0.071379276	-0.028925086	0.37871671	0.20997319	-0.057214277	0.3663369	0.043954967	-0.037603612	0.35757282	0.074710936	-0.090847617	0.74444091	-0.16268558	-0.16460314	0.72506352	0.1777253	-0.035742492	0.79551627	-0.10733645	-0.067819405	0.79066327	0.13734044	-0.23683779	0.86014113	-0.0024873599	-0.096073861	1.2629275	-0.18311618	-0.12607537	1.2678658	0.17673427	-0.1970344	1.2988222	-0.012955806	-0.18567179	0.96807109	-0.23794749	-0.19358776	0.96151381	0.27473234	-0.11159871	0.7415302	-0.28613864	0.0087305829	0.81298287	0.2720904
206	0.82	0.036476403	-0.039711519	-0.0054504662	-0.3369285	0.12604395	0.13306777	-0.084757257	-0.0082310767	-0.046182581	-0.35949028	0.26190308	0.15598451	-0.096101779	0.010206424	0.038714937	-0.31986215	0.25106455	0.076252622	-0.16424363	-0.034830828	-0.010426531	-0.3915568	0.30265026	0.092698688	-0.016777356	0.36032911	-0.071363936	-0.01415622	0.38300163	0.20909793	-0.057968409	0.36700841	0.044162432	-0.021607616	0.36130219	0.073052849	-0.084784699	0.74532399	-0.1630961	-0.15752135	0.72673238	0.17716782	-0.030141451	0.79690892	-0.10765831	-0.062179792	0.79311351	0.13753945	-0.23151347	0.86116372	-0.0034732462	-0.088906565	1.2643491	-0.18323223	-0.1202354	1.2693962	0.17632554	-0.19055499	1.2999189	-0.013650658	-0.17559367	0.96831632	-0.23867372	-0.19018057	0.9640211	0.27327864	-0.098129683	0.74271862	-0.2868305	0.0089933831	0.81091017	0.27412858
207	0.824	0.036453564	-0.039711256	-0.0053643673	-0.31788821	0.12651552	0.13428005	-0.084798911	-0.0081165002	-0.04626642	-0.34353455	0.26166009	0.15649673	-0.096049741	0.010477858	0.038630163	-0.30367902	0.25138269	0.076776252	-0.16431426	-0.034617658	-0.010530679	-0.37665646	0.30161968	0.093272472	-0.016299684	0.36062825	-0.071477998	0.00037081332	0.38751776	0.20815113	-0.058832487	0.36754462	0.044434254	-0.0058101671	0.36537373	0.071310266	-0.078958096	0.74618614	-0.16343789	-0.15028533	0.7285273	0.17688755	-0.0245751	0.79822219	-0.10796095	-0.056437523	0.79553511	0.13774657	-0.22609037	0.86219096	-0.0045126651	-0.081782773	1.2657814	-0.18337587	-0.11447135	1.2709539	0.17593209	-0.18398836	1.3011084	-0.014311799	-0.16559533	0.96853997	-0.23939074	-0.1867638	0.96643069	0.27182935	-0.084592586	0.74400243	-0.28752429	0.0091693228	0.80897333	0.27626221
208	0.828	0.03643399	-0.039707053	-0.0053057337	-0.29862714	0.12679094	0.13561397	-0.084859811	-0.0079863403	-0.04640943	-0.3275724	0.26116963	0.15705086	-0.095913975	0.010796758	0.038545197	-0.28764333	0.25142659	0.077249587	-0.16436667	-0.034329753	-0.010684653	-0.36183053	0.30020569	0.093860028	-0.015904192	0.36097631	-0.071703794	0.014669108	0.39223139	0.20713083	-0.059476973	0.36796628	0.044597577	0.0095793569	0.36975547	0.069584152	-0.073415184	0.74696794	-0.16370588	-0.14303348	0.73045336	0.17681098	-0.019038029	0.79945859	-0.10827919	-0.050577601	0.79793264	0.13795291	-0.22027175	0.86332027	-0.0055939479	-0.074709242	1.2672137	-0.18354661	-0.10874971	1.2725259	0.17555933	-0.17733173	1.3023853	-0.014931297	-0.15567665	0.96872259	-0.24007499	-0.18329719	0.96874049	0.27038341	-0.070894513	0.74542174	-0.28814609	0.0092748334	0.80717275	0.27847192
209	0.832	0.036412351	-0.039700232	-0.0052796072	-0.27920649	0.12684849	0.13700584	-0.084952968	-0.0078262806	-0.04663673	-0.31154244	0.26045169	0.15766808	-0.095786588	0.011175193	0.038396977	-0.27171426	0.25122	0.077630097	-0.16438676	-0.033986782	-0.010850036	-0.34704744	0.29841169	0.094466904	-0.015571032	0.36133591	-0.072034961	0.028751548	0.39711255	0.20603201	-0.059646584	0.36837435	0.044501662	0.02436165	0.37440565	0.068046341	-0.068240726	0.74764625	-0.16393031	-0.13584867	0.73249688	0.17678596	-0.013508854	0.80061547	-0.10863054	-0.044601359	0.80030119	0.13813625	-0.21379602	0.86470178	-0.0065859686	-0.067676132	1.2686388	-0.18375494	-0.10304759	1.2740922	0.17520606	-0.17058809	1.3037302	-0.015507805	-0.1458239	0.96885657	-0.24071669	-0.17971664	0.97094803	0.26895515	-0.056990843	0.74699792	-0.28866164	0.0093215444	0.80550186	0.28071227
210	0.836	0.036390529	-0.039693918	-0.0052763996	-0.25968023	0.12669993	0.13839376	-0.085066683	-0.0076250913	-0.046942821	-0.29542319	0.25950108	0.15833385	-0.09582658	0.011593409	0.038111648	-0.25587564	0.2508139	0.077842459	-0.16437843	-0.033600691	-0.011024927	-0.33228229	0.29622285	0.095077377	-0.015294297	0.36169286	-0.072464079	0.042622394	0.40213061	0.20485262	-0.059308582	0.36885763	0.044160759	0.038617234	0.37928024	0.066717444	-0.063529277	0.74824259	-0.16416081	-0.12873166	0.73463356	0.17672956	-0.0079790114	0.80168127	-0.10902077	-0.038509444	0.80262469	0.13826558	-0.20684177	0.86640881	-0.0072295967	-0.06066249	1.2700524	-0.18401298	-0.097345877	1.2756344	0.17486687	-0.16376642	1.305119	-0.016043257	-0.13602281	0.96894997	-0.24132471	-0.17601878	0.97304389	0.26756317	-0.042888523	0.74872804	-0.289077	0.0093246353	0.80394916	0.28293994
211	0.84	0.036373279	-0.039691086	-0.0052808683	-0.24007285	0.12638858	0.13974589	-0.085153374	-0.0073780214	-0.047282308	-0.27921693	0.25829548	0.15902072	-0.096083171	0.012031185	0.037676996	-0.24009195	0.25022376	0.07789339	-0.16434925	-0.033170849	-0.011224439	-0.31751503	0.2936395	0.095670484	-0.015050213	0.36204612	-0.072970221	0.056285078	0.40725109	0.20359108	-0.05856489	0.3694609	0.043720504	0.05255895	0.38435773	0.065500755	-0.059291151	0.74879572	-0.1644337	-0.12167959	0.73683551	0.17668939	-0.0024947028	0.80263653	-0.10945854	-0.032293276	0.80488593	0.13831144	-0.1999902	0.86830721	-0.0073717944	-0.053682437	1.2714463	-0.18432426	-0.091623797	1.2771396	0.17453859	-0.15688486	1.306534	-0.01654017	-0.12628649	0.9690218	-0.24192585	-0.17225504	0.97501784	0.26621733	-0.028642789	0.75059313	-0.28941936	0.0093027682	0.80250612	0.28513394
212	0.844	0.036360533	-0.039692534	-0.0052849417	-0.22036302	0.12596046	0.1410838	-0.085177021	-0.0070886325	-0.04761465	-0.262932	0.25679979	0.15971718	-0.096428469	0.012496504	0.037158347	-0.22426269	0.24939222	0.077918461	-0.16430698	-0.032695098	-0.011460403	-0.30272383	0.29069782	0.096253271	-0.014805665	0.3623921	-0.073522252	0.069750198	0.41244106	0.20224495	-0.057570824	0.37018987	0.043253581	0.066267295	0.38963253	0.06432995	-0.055380517	0.74932439	-0.16474142	-0.11470824	0.73907259	0.17674481	0.0028174473	0.80345119	-0.10996503	-0.025943903	0.80707583	0.1382494	-0.19359819	0.87013288	-0.0071859874	-0.04679004	1.2728087	-0.18468273	-0.085865342	1.2785966	0.1742205	-0.14996458	1.3079616	-0.017001832	-0.11665199	0.96909075	-0.24254699	-0.16847206	0.97687046	0.26491975	-0.014348376	0.75256957	-0.28972632	0.0092523111	0.80117234	0.28728625
213	0.848	0.036342363	-0.039695704	-0.0052951562	-0.20052429	0.12543897	0.14244951	-0.08514908	-0.0067658474	-0.04794088	-0.24658059	0.25499449	0.16041875	-0.09666785	0.013013632	0.036639514	-0.20824709	0.2482285	0.078082691	-0.16426221	-0.032179953	-0.011735416	-0.28790432	0.28745882	0.096867349	-0.014548751	0.36272697	-0.074096386	0.083031892	0.41767865	0.20081446	-0.056470384	0.37101493	0.042670578	0.079702638	0.39509258	0.063183461	-0.051544717	0.74980911	-0.16504415	-0.10776806	0.74131821	0.17690014	0.0078482385	0.80409549	-0.11056155	-0.01946081	0.80919151	0.13805836	-0.1875083	0.8717156	-0.006988922	-0.040018843	1.2741328	-0.18507859	-0.080062153	1.2799939	0.17390947	-0.14302545	1.3093857	-0.01742947	-0.1071215	0.9691645	-0.24317841	-0.16468366	0.97861574	0.26367576	-9.5516414e-05	0.75464066	-0.29002639	0.0091330038	0.7999534	0.28938751
